# xmcd
#
# Track frame offsets: 
#        150
#        18018
#        37658
#        59158
#        79205
#        101213
#        122045
#        143660
#        161015
#        188348
#
# Disc length: 2802 seconds
#
# Revision: 9
# Processed by: cddbd v1.5.2PL0 Copyright (c) Steve Scherf et al.
# Submitted via: ExactAudioCopy v1.0b3
#
DISCID=790af00a
DTITLE=Various Artist - L.A. Blues Authority
DYEAR=1992
DGENRE=Blues Rock
TTITLE0=Baby Please Don't Go - Zakk Wylde
TTITLE1=Same Old Blues - Brad Gillis and Davey Pattison
TTITLE2=You Don't Love Me - Steve Lukather and Steve Lukather
TTITLE3=Messin' With The Kid - Pat Thrall and Glenn Hughes
TTITLE4=How Blue Can You Get - Richie Kozen and Kevin Dubrow
TTITLE5=Rollin' And Tumblin' - George Lynch and John Chrisley
TTITLE6=Hands On You - Kevin Russell
TTITLE7=Ramblin' On My Mind - Kevin Russell and Jeff Martin
TTITLE8=The Hunter - Paul Gilbert and Fred Curry
TTITLE9=You Shook Me - George Lynch and Jeff Pilson
EXTD=YEAR: 1992
EXTT0=
EXTT1=
EXTT2=
EXTT3=
EXTT4=
EXTT5=
EXTT6=
EXTT7=
EXTT8=
EXTT9=
PLAYORDER=
